<svg width="15" height="15" viewBox="0 0 15 15" fill="none" xmlns="http://www.w3.org/2000/svg">
<path d="M0.298455 1.73864C-0.0992795 1.3409 -0.0992797 0.696042 0.298455 0.298304C0.696189 -0.0994346 1.34104 -0.0994346 1.73878 0.298304L14.7017 13.2613C15.0994 13.6591 15.0994 14.3039 14.7017 14.7017C14.304 15.0994 13.6591 15.0994 13.2614 14.7017L0.298455 1.73864Z" fill="white"/>
<path d="M1.73863 14.7017C1.34089 15.0994 0.696036 15.0994 0.298301 14.7017C-0.0994336 14.304 -0.0994337 13.6591 0.298301 13.2614L13.2612 0.298319C13.659 -0.0994197 14.3038 -0.0994199 14.7015 0.298318C15.0993 0.696057 15.0993 1.34092 14.7015 1.73866L1.73863 14.7017Z" fill="white"/>
</svg>
