<svg width="320" height="70" viewBox="0 0 320 70" fill="none" xmlns="http://www.w3.org/2000/svg">
<g clip-path="url(#clip0_1301_87)">
<path fill-rule="evenodd" clip-rule="evenodd" d="M38.4686 0.190852C31.2745 -0.566449 24.0223 0.921546 17.7088 4.45031C11.3953 7.97908 6.33046 13.3754 3.2104 19.8975C0.0903406 26.4196 -0.931747 33.7474 0.284625 40.8735C1.501 47.9997 4.89612 54.5745 10.0033 59.6941C15.1105 64.8138 21.6791 68.2269 28.8062 69.4646C35.9332 70.7022 43.2689 69.7034 49.805 66.6056C56.341 63.5078 61.7565 58.463 65.3071 52.1646C68.8577 45.8662 70.3691 38.6234 69.6335 31.4318C68.8241 23.4378 65.2831 15.9667 59.6067 10.2765C53.9303 4.58624 46.4653 1.02446 38.4686 0.190852ZM37.334 53.5072C33.4648 54.0259 29.5302 53.32 26.0832 51.4887C22.6362 49.6573 19.8501 46.7926 18.1165 43.2971C16.3828 39.8017 15.7887 35.8512 16.4178 32.0009C17.0468 28.1506 18.8673 24.5941 21.6234 21.8312C24.3795 19.0682 27.9327 17.2378 31.7835 16.5971C35.6344 15.9565 39.5893 16.5378 43.0925 18.2594C46.5956 19.9809 49.471 22.7562 51.3143 26.1952C53.1576 29.6342 53.8763 33.5639 53.3694 37.4322C52.8374 41.5009 50.978 45.2809 48.0792 48.1869C45.1803 51.0929 41.4037 52.9628 37.334 53.5072ZM88.3614 1.57515C87.1469 1.57806 85.9484 1.85149 84.8531 2.37555C83.7577 2.89961 82.793 3.66112 82.0292 4.60466C81.2655 5.5482 80.7218 6.65004 80.4377 7.83C80.1537 9.00996 80.1365 10.2384 80.3873 11.4258C81.1556 15.2728 84.7512 17.9013 88.6682 17.9013H111.399L76.0247 64.6834C75.7631 65.0288 75.6029 65.4401 75.5621 65.8714C75.5213 66.3026 75.6015 66.7367 75.7937 67.1249C75.986 67.5132 76.2826 67.8402 76.6504 68.0694C77.0182 68.2987 77.4426 68.421 77.8761 68.4226H133.364C137.278 68.4226 140.876 65.7948 141.645 61.9472C141.896 60.7599 141.879 59.5317 141.595 58.3518C141.311 57.172 140.768 56.0702 140.004 55.1266C139.241 54.183 138.276 53.4213 137.181 52.8969C136.086 52.3725 134.888 52.0986 133.674 52.0952H105.978L141.325 5.34944C141.59 5.00071 141.751 4.58532 141.792 4.14987C141.834 3.71442 141.752 3.27613 141.558 2.88419C141.364 2.49224 141.064 2.16213 140.693 1.93091C140.321 1.69969 139.893 1.5765 139.455 1.57515H88.3614ZM310.087 1.76347C308.25 2.20001 306.617 3.25 305.458 4.73985C304.3 6.22969 303.684 8.07015 303.714 9.95694V37.1394L259.639 2.08857C259.293 1.81438 258.877 1.64328 258.439 1.59493C258 1.54659 257.557 1.62297 257.16 1.81529C256.762 2.00761 256.428 2.30806 256.194 2.68207C255.96 3.05608 255.837 3.48845 255.838 3.92945V60.0554C255.808 61.9422 256.423 63.7827 257.582 65.2726C258.741 66.7625 260.374 67.8124 262.211 68.2489C263.404 68.5112 264.641 68.5025 265.83 68.2235C267.019 67.9445 268.13 67.4023 269.082 66.6368C270.033 65.8714 270.8 64.9022 271.327 63.8009C271.854 62.6995 272.126 61.4941 272.125 60.2734V32.8557L316.2 67.9073C316.546 68.1813 316.962 68.3523 317.4 68.4006C317.838 68.4489 318.282 68.3725 318.679 68.1803C319.076 67.988 319.41 67.6877 319.644 67.3139C319.878 66.94 320.001 66.5078 320 66.067V9.73625C320.001 8.5159 319.728 7.31082 319.202 6.20986C318.675 5.1089 317.908 4.14014 316.956 3.375C316.005 2.60986 314.894 2.06785 313.705 1.78894C312.516 1.51003 311.28 1.50132 310.087 1.76347ZM195.328 16.3386C213.971 16.3386 227.9 26.184 227.9 34.9906C227.9 43.7973 213.971 53.6427 195.328 53.6427C176.686 53.6427 162.756 43.7973 162.756 34.9906C162.756 26.184 176.686 16.3386 195.328 16.3386ZM195.328 0.013107C168.344 0.013107 146.47 15.6732 146.47 34.9906C146.47 54.3081 168.344 69.9682 195.328 69.9682C222.312 69.9682 244.186 54.3081 244.186 34.9906C244.186 15.6732 222.312 0.013107 195.328 0.013107Z" fill="white"/>
</g>
<defs>
<clipPath id="clip0_1301_87">
<rect width="320" height="70" fill="white"/>
</clipPath>
</defs>
</svg>
